{"asset":{"version":"2.0","generator":"THREE.GLTFExporter"},"scenes":[{"nodes":[0],"name":"AuxScene"}],"scene":0,"nodes":[{"name":"unnamed_mesh1","mesh":0}],"bufferViews":[{"buffer":0,"byteOffset":0,"byteLength":12672,"target":34962,"byteStride":12},{"buffer":0,"byteOffset":12672,"byteLength":12672,"target":34962,"byteStride":12},{"buffer":0,"byteOffset":25344,"byteLength":12672,"target":34962,"byteStride":12},{"buffer":0,"byteOffset":38016,"byteLength":8448,"target":34962,"byteStride":8}],"buffers":[{"byteLength":46464,"uri":"data:application/octet-stream;base64,"}],"accessors":[{"bufferView":0,"componentType":5126,"count":1056,"max":[7,16,13],"min":[-5,0,-8],"type":"VEC3"},{"bufferView":1,"componentType":5126,"count":1056,"max":[1,1,1],"min":[-1,-1,-1],"type":"VEC3"},{"bufferView":2,"componentType":5126,"count":1056,"max":[0.9450980424880981,0.9490196108818054,0.9450980424880981],"min":[0,0,0.003921568859368563],"type":"VEC3"},{"bufferView":3,"componentType":5126,"count":1056,"max":[1,0.02083333395421505],"min":[0,0],"type":"VEC2"}],"materials":[{"pbrMetallicRoughness":{"metallicFactor":0.5,"roughnessFactor":0.5,"baseColorTexture":{"index":0}}}],"textures":[{"sampler":0,"source":0}],"samplers":[{"magFilter":9728,"minFilter":9728,"wrapS":33071,"wrapT":33071}],"images":[{"mimeType":"image/png","uri":"data:image/png;base64,"}],"meshes":[{"primitives":[{"mode":4,"attributes":{"POSITION":0,"NORMAL":1,"COLOR_0":2,"TEXCOORD_0":3},"material":0}]}]}