{
	"asset":{
		"generator":"Khronos glTF Blender I/O v3.6.27",
		"version":"2.0"
	},
	"scene":0,
	"scenes":[
		{
			"name":"Scene",
			"nodes":[
				0,
				1
			]
		}
	],
	"nodes":[
		{
			"mesh":0,
			"name":"corgi"
		},
		{
			"name":"curve",
			"rotation":[
				0,
				0.1404777467250824,
				0,
				0.9900839328765869
			],
			"scale":[
				8.107605934143066,
				8.107605934143066,
				8.107605934143066
			]
		}
	],
	"animations":[
		{
			"channels":[
				{
					"sampler":0,
					"target":{
						"node":0,
						"path":"translation"
					}
				},
				{
					"sampler":1,
					"target":{
						"node":0,
						"path":"rotation"
					}
				}
			],
			"name":"lay",
			"samplers":[
				{
					"input":5,
					"interpolation":"LINEAR",
					"output":6
				},
				{
					"input":5,
					"interpolation":"LINEAR",
					"output":7
				}
			]
		},
		{
			"channels":[
				{
					"sampler":0,
					"target":{
						"node":0,
						"path":"translation"
					}
				},
				{
					"sampler":1,
					"target":{
						"node":0,
						"path":"rotation"
					}
				},
				{
					"sampler":2,
					"target":{
						"node":0,
						"path":"scale"
					}
				}
			],
			"name":"idle",
			"samplers":[
				{
					"input":8,
					"interpolation":"LINEAR",
					"output":9
				},
				{
					"input":8,
					"interpolation":"LINEAR",
					"output":10
				},
				{
					"input":8,
					"interpolation":"LINEAR",
					"output":11
				}
			]
		},
		{
			"channels":[
				{
					"sampler":0,
					"target":{
						"node":0,
						"path":"translation"
					}
				},
				{
					"sampler":1,
					"target":{
						"node":0,
						"path":"rotation"
					}
				},
				{
					"sampler":2,
					"target":{
						"node":0,
						"path":"scale"
					}
				}
			],
			"name":"up",
			"samplers":[
				{
					"input":12,
					"interpolation":"LINEAR",
					"output":13
				},
				{
					"input":12,
					"interpolation":"LINEAR",
					"output":14
				},
				{
					"input":15,
					"interpolation":"STEP",
					"output":16
				}
			]
		},
		{
			"channels":[
				{
					"sampler":0,
					"target":{
						"node":0,
						"path":"translation"
					}
				},
				{
					"sampler":1,
					"target":{
						"node":0,
						"path":"rotation"
					}
				},
				{
					"sampler":2,
					"target":{
						"node":0,
						"path":"scale"
					}
				}
			],
			"name":"leave",
			"samplers":[
				{
					"input":17,
					"interpolation":"LINEAR",
					"output":18
				},
				{
					"input":17,
					"interpolation":"LINEAR",
					"output":19
				},
				{
					"input":20,
					"interpolation":"STEP",
					"output":21
				}
			]
		},
		{
			"channels":[
				{
					"sampler":0,
					"target":{
						"node":0,
						"path":"translation"
					}
				},
				{
					"sampler":1,
					"target":{
						"node":0,
						"path":"rotation"
					}
				},
				{
					"sampler":2,
					"target":{
						"node":0,
						"path":"scale"
					}
				}
			],
			"name":"back",
			"samplers":[
				{
					"input":22,
					"interpolation":"LINEAR",
					"output":23
				},
				{
					"input":22,
					"interpolation":"LINEAR",
					"output":24
				},
				{
					"input":25,
					"interpolation":"STEP",
					"output":26
				}
			]
		},
		{
			"channels":[
				{
					"sampler":0,
					"target":{
						"node":1,
						"path":"translation"
					}
				},
				{
					"sampler":1,
					"target":{
						"node":1,
						"path":"rotation"
					}
				},
				{
					"sampler":2,
					"target":{
						"node":1,
						"path":"scale"
					}
				}
			],
			"name":"curveAction",
			"samplers":[
				{
					"input":27,
					"interpolation":"LINEAR",
					"output":28
				},
				{
					"input":27,
					"interpolation":"LINEAR",
					"output":29
				},
				{
					"input":27,
					"interpolation":"LINEAR",
					"output":30
				}
			]
		}
	],
	"materials":[
		{
			"name":"Material_0",
			"pbrMetallicRoughness":{
				"baseColorTexture":{
					"index":0
				},
				"metallicFactor":0
			}
		}
	],
	"meshes":[
		{
			"name":"Mesh_0",
			"primitives":[
				{
					"attributes":{
						"COLOR_0":0,
						"POSITION":1,
						"NORMAL":2,
						"TEXCOORD_0":3
					},
					"indices":4,
					"material":0
				}
			]
		}
	],
	"textures":[
		{
			"sampler":0,
			"source":0
		}
	],
	"images":[
		{
			"bufferView":5,
			"mimeType":"image/png",
			"name":"Image_0"
		}
	],
	"accessors":[
		{
			"bufferView":0,
			"componentType":5123,
			"count":891,
			"normalized":true,
			"type":"VEC4"
		},
		{
			"bufferView":1,
			"componentType":5126,
			"count":891,
			"max":[
				4,
				12,
				8
			],
			"min":[
				-4,
				0,
				-7
			],
			"type":"VEC3"
		},
		{
			"bufferView":2,
			"componentType":5126,
			"count":891,
			"type":"VEC3"
		},
		{
			"bufferView":3,
			"componentType":5126,
			"count":891,
			"type":"VEC2"
		},
		{
			"bufferView":4,
			"componentType":5123,
			"count":891,
			"type":"SCALAR"
		},
		{
			"bufferView":6,
			"componentType":5126,
			"count":129,
			"max":[
				3.5555555555555554
			],
			"min":[
				0
			],
			"type":"SCALAR"
		},
		{
			"bufferView":7,
			"componentType":5126,
			"count":129,
			"type":"VEC3"
		},
		{
			"bufferView":8,
			"componentType":5126,
			"count":129,
			"type":"VEC4"
		},
		{
			"bufferView":9,
			"componentType":5126,
			"count":1,
			"max":[
				1.4166666666666667
			],
			"min":[
				1.4166666666666667
			],
			"type":"SCALAR"
		},
		{
			"bufferView":10,
			"componentType":5126,
			"count":1,
			"type":"VEC3"
		},
		{
			"bufferView":11,
			"componentType":5126,
			"count":1,
			"type":"VEC4"
		},
		{
			"bufferView":12,
			"componentType":5126,
			"count":1,
			"type":"VEC3"
		},
		{
			"bufferView":13,
			"componentType":5126,
			"count":80,
			"max":[
				2.1944444444444446
			],
			"min":[
				0
			],
			"type":"SCALAR"
		},
		{
			"bufferView":14,
			"componentType":5126,
			"count":80,
			"type":"VEC3"
		},
		{
			"bufferView":15,
			"componentType":5126,
			"count":80,
			"type":"VEC4"
		},
		{
			"bufferView":16,
			"componentType":5126,
			"count":2,
			"max":[
				2.1944444444444446
			],
			"min":[
				0
			],
			"type":"SCALAR"
		},
		{
			"bufferView":17,
			"componentType":5126,
			"count":2,
			"type":"VEC3"
		},
		{
			"bufferView":18,
			"componentType":5126,
			"count":69,
			"max":[
				1.9166666666666667
			],
			"min":[
				0.027777777777777776
			],
			"type":"SCALAR"
		},
		{
			"bufferView":19,
			"componentType":5126,
			"count":69,
			"type":"VEC3"
		},
		{
			"bufferView":20,
			"componentType":5126,
			"count":69,
			"type":"VEC4"
		},
		{
			"bufferView":21,
			"componentType":5126,
			"count":2,
			"max":[
				1.9166666666666667
			],
			"min":[
				0.027777777777777776
			],
			"type":"SCALAR"
		},
		{
			"bufferView":22,
			"componentType":5126,
			"count":2,
			"type":"VEC3"
		},
		{
			"bufferView":23,
			"componentType":5126,
			"count":48,
			"max":[
				1.3333333333333333
			],
			"min":[
				0.027777777777777776
			],
			"type":"SCALAR"
		},
		{
			"bufferView":24,
			"componentType":5126,
			"count":48,
			"type":"VEC3"
		},
		{
			"bufferView":25,
			"componentType":5126,
			"count":48,
			"type":"VEC4"
		},
		{
			"bufferView":26,
			"componentType":5126,
			"count":2,
			"max":[
				1.3333333333333333
			],
			"min":[
				0.027777777777777776
			],
			"type":"SCALAR"
		},
		{
			"bufferView":27,
			"componentType":5126,
			"count":2,
			"type":"VEC3"
		},
		{
			"bufferView":28,
			"componentType":5126,
			"count":1,
			"max":[
				0.5555555555555556
			],
			"min":[
				0.5555555555555556
			],
			"type":"SCALAR"
		},
		{
			"bufferView":29,
			"componentType":5126,
			"count":1,
			"type":"VEC3"
		},
		{
			"bufferView":30,
			"componentType":5126,
			"count":1,
			"type":"VEC4"
		},
		{
			"bufferView":31,
			"componentType":5126,
			"count":1,
			"type":"VEC3"
		}
	],
	"bufferViews":[
		{
			"buffer":0,
			"byteLength":7128,
			"byteOffset":0,
			"target":34962
		},
		{
			"buffer":0,
			"byteLength":10692,
			"byteOffset":7128,
			"target":34962
		},
		{
			"buffer":0,
			"byteLength":10692,
			"byteOffset":17820,
			"target":34962
		},
		{
			"buffer":0,
			"byteLength":7128,
			"byteOffset":28512,
			"target":34962
		},
		{
			"buffer":0,
			"byteLength":1782,
			"byteOffset":35640,
			"target":34963
		},
		{
			"buffer":0,
			"byteLength":266,
			"byteOffset":37424
		},
		{
			"buffer":0,
			"byteLength":516,
			"byteOffset":37692
		},
		{
			"buffer":0,
			"byteLength":1548,
			"byteOffset":38208
		},
		{
			"buffer":0,
			"byteLength":2064,
			"byteOffset":39756
		},
		{
			"buffer":0,
			"byteLength":4,
			"byteOffset":41820
		},
		{
			"buffer":0,
			"byteLength":12,
			"byteOffset":41824
		},
		{
			"buffer":0,
			"byteLength":16,
			"byteOffset":41836
		},
		{
			"buffer":0,
			"byteLength":12,
			"byteOffset":41852
		},
		{
			"buffer":0,
			"byteLength":320,
			"byteOffset":41864
		},
		{
			"buffer":0,
			"byteLength":960,
			"byteOffset":42184
		},
		{
			"buffer":0,
			"byteLength":1280,
			"byteOffset":43144
		},
		{
			"buffer":0,
			"byteLength":8,
			"byteOffset":44424
		},
		{
			"buffer":0,
			"byteLength":24,
			"byteOffset":44432
		},
		{
			"buffer":0,
			"byteLength":276,
			"byteOffset":44456
		},
		{
			"buffer":0,
			"byteLength":828,
			"byteOffset":44732
		},
		{
			"buffer":0,
			"byteLength":1104,
			"byteOffset":45560
		},
		{
			"buffer":0,
			"byteLength":8,
			"byteOffset":46664
		},
		{
			"buffer":0,
			"byteLength":24,
			"byteOffset":46672
		},
		{
			"buffer":0,
			"byteLength":192,
			"byteOffset":46696
		},
		{
			"buffer":0,
			"byteLength":576,
			"byteOffset":46888
		},
		{
			"buffer":0,
			"byteLength":768,
			"byteOffset":47464
		},
		{
			"buffer":0,
			"byteLength":8,
			"byteOffset":48232
		},
		{
			"buffer":0,
			"byteLength":24,
			"byteOffset":48240
		},
		{
			"buffer":0,
			"byteLength":4,
			"byteOffset":48264
		},
		{
			"buffer":0,
			"byteLength":12,
			"byteOffset":48268
		},
		{
			"buffer":0,
			"byteLength":16,
			"byteOffset":48280
		},
		{
			"buffer":0,
			"byteLength":12,
			"byteOffset":48296
		}
	],
	"samplers":[
		{
			"magFilter":9728,
			"minFilter":9984,
			"wrapS":33071,
			"wrapT":33071
		}
	],
	"buffers":[
		{
			"byteLength":48308,
			"uri":"data:application/octet-stream;base64,"
		}
	]
}
