{"asset":{"version":"2.0","generator":"THREE.GLTFExporter"},"scenes":[{"nodes":[0],"name":"AuxScene"}],"scene":0,"nodes":[{"name":"unnamed_mesh1","mesh":0}],"bufferViews":[{"buffer":0,"byteOffset":0,"byteLength":10692,"target":34962,"byteStride":12},{"buffer":0,"byteOffset":10692,"byteLength":10692,"target":34962,"byteStride":12},{"buffer":0,"byteOffset":21384,"byteLength":10692,"target":34962,"byteStride":12},{"buffer":0,"byteOffset":32076,"byteLength":7128,"target":34962,"byteStride":8}],"buffers":[{"byteLength":39204,"uri":"data:application/octet-stream;base64,"}],"accessors":[{"bufferView":0,"componentType":5126,"count":891,"max":[4,12,8],"min":[-4,0,-7],"type":"VEC3"},{"bufferView":1,"componentType":5126,"count":891,"max":[1,1,1],"min":[-1,-1,-1],"type":"VEC3"},{"bufferView":2,"componentType":5126,"count":891,"max":[1,1,1],"min":[0.05098039284348488,0.027450980618596077,0.03529411926865578],"type":"VEC3"},{"bufferView":3,"componentType":5126,"count":891,"max":[1,0.02083333395421505],"min":[0,0],"type":"VEC2"}],"materials":[{"pbrMetallicRoughness":{"metallicFactor":0.5,"roughnessFactor":0.5,"baseColorTexture":{"index":0}}}],"textures":[{"sampler":0,"source":0}],"samplers":[{"magFilter":9728,"minFilter":9728,"wrapS":33071,"wrapT":33071}],"images":[{"mimeType":"image/png","uri":"data:image/png;base64,"}],"meshes":[{"primitives":[{"mode":4,"attributes":{"POSITION":0,"NORMAL":1,"COLOR_0":2,"TEXCOORD_0":3},"material":0}]}]}