{"asset":{"version":"2.0","generator":"THREE.GLTFExporter"},"scenes":[{"nodes":[0],"name":"AuxScene"}],"scene":0,"nodes":[{"name":"unnamed_mesh1","mesh":0}],"bufferViews":[{"buffer":0,"byteOffset":0,"byteLength":5544,"target":34962,"byteStride":12},{"buffer":0,"byteOffset":5544,"byteLength":5544,"target":34962,"byteStride":12},{"buffer":0,"byteOffset":11088,"byteLength":5544,"target":34962,"byteStride":12},{"buffer":0,"byteOffset":16632,"byteLength":3696,"target":34962,"byteStride":8}],"buffers":[{"byteLength":20328,"uri":"data:application/octet-stream;base64,"}],"accessors":[{"bufferView":0,"componentType":5126,"count":462,"max":[5,23,6],"min":[-6,0,-6],"type":"VEC3"},{"bufferView":1,"componentType":5126,"count":462,"max":[1,1,1],"min":[-1,-1,-1],"type":"VEC3"},{"bufferView":2,"componentType":5126,"count":462,"max":[0.7882353067398071,0.7215686440467834,0.7843137383460999],"min":[0.7137255072593689,0.7058823704719543,0.7607843279838562],"type":"VEC3"},{"bufferView":3,"componentType":5126,"count":462,"max":[0.8125,0.02083333395421505],"min":[0.7708333134651184,0],"type":"VEC2"}],"materials":[{"pbrMetallicRoughness":{"metallicFactor":0.5,"roughnessFactor":0.5,"baseColorTexture":{"index":0}}}],"textures":[{"sampler":0,"source":0}],"samplers":[{"magFilter":9728,"minFilter":9728,"wrapS":33071,"wrapT":33071}],"images":[{"mimeType":"image/png","uri":"data:image/png;base64,"}],"meshes":[{"primitives":[{"mode":4,"attributes":{"POSITION":0,"NORMAL":1,"COLOR_0":2,"TEXCOORD_0":3},"material":0}]}]}