<?xml version="1.0" encoding="UTF-8"?>
<!DOCTYPE svg PUBLIC "-//W3C//DTD SVG 1.1//EN" "http://www.w3.org/Graphics/SVG/1.1/DTD/svg11.dtd">
<!-- Creator: CorelDRAW 2019 (64-Bit) -->
<svg xmlns="http://www.w3.org/2000/svg" xml:space="preserve" width="13.9334mm" height="14.9958mm" version="1.1" style="shape-rendering:geometricPrecision; text-rendering:geometricPrecision; image-rendering:optimizeQuality; fill-rule:evenodd; clip-rule:evenodd"
viewBox="0 0 187.99 202.33"
 xmlns:xlink="http://www.w3.org/1999/xlink">
 <defs>
  <style type="text/css">
   <![CDATA[
    .str1 {stroke:#7FD2BE;stroke-width:38.08;stroke-miterlimit:22.9256}
    .str0 {stroke:#E68477;stroke-width:38.08;stroke-miterlimit:22.9256}
    .fil1 {fill:#7FD2BE}
    .fil0 {fill:#E68477}
   ]]>
  </style>
 </defs>
 <g id="图层_x0020_1">
  <metadata id="CorelCorpID_0Corel-Layer"/>
  <path class="fil0 str0" d="M62.9 46.17l62.19 0c19.67,0 35.77,16.1 35.77,35.77l0 57.76c0,19.67 -16.1,35.77 -35.77,35.77l-62.19 0c-19.67,0 -35.77,-16.1 -35.77,-35.77l0 -57.76c0,-19.67 16.1,-35.77 35.77,-35.77z"/>
  <path class="fil0 str0" d="M59.14 38.35l69.72 0c22.05,0 40.1,18.04 40.1,40.1l0 64.75c0,22.05 -18.04,40.1 -40.1,40.1l-69.72 0c-22.05,0 -40.1,-18.04 -40.1,-40.1l0 -64.75c0,-22.05 18.04,-40.1 40.1,-40.1z"/>
  <path class="fil1 str1" d="M74.04 19.04l39.92 0c2.35,0 4.27,1.92 4.27,4.27l0 0c0,2.35 -1.92,4.26 -4.27,4.26l-39.92 0c-2.35,0 -4.27,-1.92 -4.27,-4.26l0 0c0,-2.35 1.92,-4.27 4.27,-4.27z"/>
 </g>
</svg>
