{"asset":{"version":"2.0","generator":"THREE.GLTFExporter"},"scenes":[{"nodes":[0],"name":"AuxScene"}],"scene":0,"nodes":[{"name":"unnamed_mesh1","mesh":0}],"bufferViews":[{"buffer":0,"byteOffset":0,"byteLength":11016,"target":34962,"byteStride":12},{"buffer":0,"byteOffset":11016,"byteLength":11016,"target":34962,"byteStride":12},{"buffer":0,"byteOffset":22032,"byteLength":11016,"target":34962,"byteStride":12},{"buffer":0,"byteOffset":33048,"byteLength":7344,"target":34962,"byteStride":8}],"buffers":[{"byteLength":40392,"uri":"data:application/octet-stream;base64,"}],"accessors":[{"bufferView":0,"componentType":5126,"count":918,"max":[4,7,4],"min":[-4,0,-4],"type":"VEC3"},{"bufferView":1,"componentType":5126,"count":918,"max":[1,1,1],"min":[-1,-1,-1],"type":"VEC3"},{"bufferView":2,"componentType":5126,"count":918,"max":[0.6117647290229797,0.9019607901573181,0.9490196108818054],"min":[0.6117647290229797,0.9019607901573181,0.9490196108818054],"type":"VEC3"},{"bufferView":3,"componentType":5126,"count":918,"max":[0.4375,0.02083333395421505],"min":[0.4166666567325592,0],"type":"VEC2"}],"materials":[{"pbrMetallicRoughness":{"metallicFactor":0.5,"roughnessFactor":0.5,"baseColorTexture":{"index":0}}}],"textures":[{"sampler":0,"source":0}],"samplers":[{"magFilter":9728,"minFilter":9728,"wrapS":33071,"wrapT":33071}],"images":[{"mimeType":"image/png","uri":"data:image/png;base64,"}],"meshes":[{"primitives":[{"mode":4,"attributes":{"POSITION":0,"NORMAL":1,"COLOR_0":2,"TEXCOORD_0":3},"material":0}]}]}