{"asset":{"version":"2.0","generator":"THREE.GLTFExporter"},"scenes":[{"nodes":[0],"name":"AuxScene"}],"scene":0,"nodes":[{"name":"unnamed_mesh1","mesh":0}],"bufferViews":[{"buffer":0,"byteOffset":0,"byteLength":3960,"target":34962,"byteStride":12},{"buffer":0,"byteOffset":3960,"byteLength":3960,"target":34962,"byteStride":12},{"buffer":0,"byteOffset":7920,"byteLength":3960,"target":34962,"byteStride":12},{"buffer":0,"byteOffset":11880,"byteLength":2640,"target":34962,"byteStride":8}],"buffers":[{"byteLength":14520,"uri":"data:application/octet-stream;base64,"}],"accessors":[{"bufferView":0,"componentType":5126,"count":330,"max":[2,5,3],"min":[-2,0,-1],"type":"VEC3"},{"bufferView":1,"componentType":5126,"count":330,"max":[1,1,1],"min":[-1,-1,-1],"type":"VEC3"},{"bufferView":2,"componentType":5126,"count":330,"max":[0.8588235378265381,0.6196078658103943,0.43921568989753723],"min":[0.08627451211214066,0.4941176474094391,0.14901961386203766],"type":"VEC3"},{"bufferView":3,"componentType":5126,"count":330,"max":[0.2083333283662796,0.02083333395421505],"min":[0.0833333358168602,0],"type":"VEC2"}],"materials":[{"pbrMetallicRoughness":{"metallicFactor":0.5,"roughnessFactor":0.5,"baseColorTexture":{"index":0}}}],"textures":[{"sampler":0,"source":0}],"samplers":[{"magFilter":9728,"minFilter":9728,"wrapS":33071,"wrapT":33071}],"images":[{"mimeType":"image/png","uri":"data:image/png;base64,"}],"meshes":[{"primitives":[{"mode":4,"attributes":{"POSITION":0,"NORMAL":1,"COLOR_0":2,"TEXCOORD_0":3},"material":0}]}]}